<?xml version="1.0" standalone="no"?>
<!DOCTYPE svg PUBLIC "-//W3C//DTD SVG 20010904//EN"
 "http://www.w3.org/TR/2001/REC-SVG-20010904/DTD/svg10.dtd">
<svg version="1.0" xmlns="http://www.w3.org/2000/svg"
 width="179.000000pt" height="45.000000pt" viewBox="0 0 179.000000 45.000000"
 preserveAspectRatio="xMidYMid meet">

<g transform="translate(0.000000,45.000000) scale(0.100000,-0.100000)"
fill="#000000" stroke="none">
<path d="M97 353 c-11 -10 -8 -61 3 -68 13 -8 13 -58 -1 -72 -6 -6 -9 -23 -7
-39 l3 -29 80 2 c44 1 87 2 95 2 8 0 40 -1 70 -3 30 -2 126 -5 213 -5 151 -1
157 -2 157 -21 0 -23 40 -46 64 -37 8 3 34 43 57 89 23 46 44 77 47 70 2 -8
-1 -24 -8 -37 -7 -12 -10 -31 -8 -41 3 -17 15 -19 138 -20 74 -1 140 2 147 8
7 6 14 5 18 -2 10 -16 110 -13 124 4 10 12 16 12 39 0 35 -18 76 -18 92 1 11
13 15 13 33 0 46 -32 117 -4 117 46 0 11 4 18 9 15 5 -3 7 -15 4 -26 -12 -44
48 -68 79 -32 52 59 63 138 23 177 -30 31 -84 34 -109 6 -17 -19 -18 -19 -37
0 -30 30 -56 23 -88 -21 -23 -32 -31 -37 -40 -26 -17 20 -209 20 -232 0 -14
-13 -18 -13 -29 1 -14 17 -62 20 -91 5 -16 -9 -19 -7 -19 9 0 35 -41 52 -112
49 -57 -3 -63 -5 -66 -25 -3 -22 -8 -23 -85 -24 -45 -1 -113 0 -150 1 -39 1
-74 -3 -81 -10 -10 -7 -16 -8 -21 0 -8 13 -132 13 -140 0 -5 -8 -11 -7 -21 1
-8 7 -30 9 -54 6 -30 -4 -40 -2 -40 8 0 27 -43 45 -106 45 -33 0 -64 -3 -67
-7z m134 -23 c21 -12 25 -50 8 -67 -9 -9 -8 -16 5 -28 14 -15 16 -15 16 -1 0
22 36 56 59 56 10 0 29 -8 42 -19 l23 -18 -29 -27 c-25 -24 -26 -26 -7 -26 15
0 19 -5 15 -20 -3 -11 -9 -20 -14 -20 -18 0 -65 22 -76 36 -10 13 -12 13 -17
-4 -8 -23 -34 -32 -94 -32 -30 0 -44 5 -49 16 -3 9 -1 19 4 23 6 3 13 27 17
54 6 39 5 47 -8 47 -9 0 -16 9 -16 20 0 17 7 20 51 20 28 0 59 -5 70 -10z
m756 4 c29 -8 38 -39 20 -67 -15 -23 -5 -77 14 -77 5 0 9 -7 9 -15 0 -11 -11
-15 -36 -15 -32 0 -36 3 -31 21 7 25 -1 49 -15 49 -6 0 -8 -14 -4 -35 7 -33 5
-35 -21 -35 l-28 0 0 90 0 90 35 0 c19 0 45 -3 57 -6z m532 -8 c9 -10 8 -16
-4 -26 -14 -12 -13 -16 9 -37 31 -29 33 -56 6 -83 -31 -31 -57 -25 -79 17 -16
32 -14 51 14 100 28 46 36 51 54 29z m152 -7 c16 -16 20 -29 16 -56 -7 -42
-44 -103 -62 -103 -21 0 -27 17 -13 39 10 17 9 23 -15 41 -32 25 -34 53 -7 80
26 26 55 25 81 -1z m-1159 -38 c3 0 9 -14 12 -31 19 -98 20 -90 -13 -90 -31 0
-31 0 -24 45 5 39 3 45 -12 45 -15 0 -17 -6 -12 -45 7 -45 6 -45 -23 -45 -29
0 -30 0 -23 45 3 27 1 50 -6 58 -6 8 -8 17 -5 20 5 5 76 4 106 -2z m160 0 c3
0 9 -14 12 -31 19 -98 20 -90 -13 -90 -31 0 -31 0 -24 45 5 39 3 45 -12 45
-15 0 -17 -6 -12 -45 7 -45 6 -45 -23 -45 -29 0 -30 0 -23 45 3 27 1 50 -6 58
-6 8 -8 17 -5 20 5 5 76 4 106 -2z m105 -14 c-7 -27 7 -57 16 -34 3 8 3 25 0
37 -6 21 -3 22 28 15 19 -4 35 -8 37 -10 1 -1 -19 -40 -45 -88 -41 -74 -49
-84 -65 -76 -17 9 -17 12 -3 40 15 27 15 33 -1 69 -10 22 -21 40 -26 40 -4 0
-8 7 -8 15 0 11 11 15 36 15 33 0 36 -2 31 -23z m363 3 c11 -11 20 -31 20 -45
0 -30 -32 -65 -60 -65 -28 0 -60 35 -60 65 0 30 32 65 60 65 11 0 29 -9 40
-20z m150 -2 c0 -17 -5 -19 -30 -13 -19 4 -30 3 -30 -4 0 -6 6 -11 13 -11 8 0
22 -9 33 -21 28 -31 8 -53 -50 -56 -39 -2 -46 0 -46 17 0 24 18 36 33 21 14
-14 27 -14 27 -1 0 6 -11 15 -25 20 -60 23 -35 69 36 68 32 0 39 -4 39 -20z
m111 3 l23 -18 -29 -27 c-25 -24 -26 -26 -7 -26 15 0 19 -5 15 -20 -6 -23 -9
-24 -52 -9 -52 18 -66 64 -31 99 25 25 51 25 81 1z m-844 -53 c-3 -8 -6 -5 -6
6 -1 11 2 17 5 13 3 -3 4 -12 1 -19z m-157 2 c0 -5 -5 -10 -11 -10 -5 0 -7 5
-4 10 3 6 8 10 11 10 2 0 4 -4 4 -10z m330 -44 c0 -26 -6 -18 -14 19 -5 22 -4
26 4 15 5 -8 10 -24 10 -34z"/>
<path d="M180 285 c0 -8 7 -15 15 -15 8 0 15 7 15 15 0 8 -7 15 -15 15 -8 0
-15 -7 -15 -15z"/>
<path d="M307 253 c-12 -12 -7 -22 8 -17 8 4 15 10 15 15 0 11 -14 12 -23 2z"/>
<path d="M180 215 c0 -8 7 -15 15 -15 8 0 15 7 15 15 0 8 -7 15 -15 15 -8 0
-15 -7 -15 -15z"/>
<path d="M940 285 c0 -8 7 -15 15 -15 8 0 15 7 15 15 0 8 -7 15 -15 15 -8 0
-15 -7 -15 -15z"/>
<path d="M1490 226 c0 -8 5 -18 10 -21 6 -3 10 3 10 14 0 12 -4 21 -10 21 -5
0 -10 -6 -10 -14z"/>
<path d="M1615 290 c-7 -12 2 -30 16 -30 12 0 12 27 0 35 -5 3 -12 1 -16 -5z"/>
<path d="M1092 228 c5 -32 28 -35 28 -4 0 17 -5 26 -16 26 -10 0 -14 -7 -12
-22z"/>
<path d="M1347 253 c-12 -12 -7 -22 8 -17 8 4 15 10 15 15 0 11 -14 12 -23 2z"/>
</g>
</svg>
